<svg id="Layer_1" data-name="Layer 1" xmlns="http://www.w3.org/2000/svg" viewBox="0 0 1024 1024"><defs><style>.cls-1{fill:#3ac6fc;}.cls-2{fill:#ef8130;}.cls-3{fill:#e26b1b;}.cls-4{fill:#f29a57;}.cls-17,.cls-5{fill:none;stroke-miterlimit:10;}.cls-5{stroke:#1d1d1b;stroke-width:1.49px;}.cls-6{fill:#ed863a;}.cls-14,.cls-7{fill:#3c3c3b;}.cls-8{fill:#232323;}.cls-9{fill:#fff;}.cls-10{fill:#c6601a;}.cls-11{fill:#f9e3d2;}.cls-12{fill:#af886d;}.cls-13{fill:#bd1622;}.cls-14{font-size:18.21px;font-family:DKLemonYellowSun, DK Lemon Yellow Sun;}.cls-15{fill:#fcea0d;}.cls-16{fill:#ffd400;}.cls-17{stroke:#fff;stroke-width:1.21px;}.cls-18{fill:#1d6464;}.cls-19{fill:#4ba5ae;}.cls-20{fill:#44969b;}.cls-21{fill:#282828;}</style></defs><circle class="cls-1" cx="512" cy="512" r="512"/><path class="cls-2" d="M413.59,844.07c-5.56,2.6-46.32,20.9-85.63.46-32.5-16.9-48.56-52.38-49.46-81.89-1.7-55.8,52.66-64.2,85.14-142.71,2.77-6.7,45.15-112.45-3.28-156.85-23.58-21.62-65.21-25.51-97.26-8.56-37.31,19.73-52.14,62.66-47,94.06C220.92,578.4,240.84,580,249.31,611c10.24,37.52-13,56.67-25.13,109.46-3.31,14.41-23.5,99.46,15.4,149.2,48.94,62.56,165.49,36.26,170.51,35.06"/><path class="cls-3" d="M376.66,487.15a127.79,127.79,0,0,0-41.84-2.21c-40.17,4.57-67,27.32-77.25,37.13,5.75-3.65,40.06-24.65,81.12-12.76a96.76,96.76,0,0,1,44.44,28.1,139.35,139.35,0,0,0-.65-26.68,107.93,107.93,0,0,0-2.35-12.66A99.81,99.81,0,0,0,376.66,487.15Z"/><path class="cls-3" d="M375.56,583.18a80.33,80.33,0,0,0-17.4-8.32c-26.68-9-51-1.32-61.2,2.61,5.05-1.23,33.5-7.66,56.69,9.76a59.26,59.26,0,0,1,15.53,17.57q2-6.1,3.95-12.7,1.31-4.54,2.43-8.92"/><path class="cls-3" d="M346.83,652.49c-2.66,4.18-5.61,8.52-8.89,13-2,2.75-4.07,5.37-6.08,7.85a26.36,26.36,0,0,0-4.24-13c-6.85-10.31-21.4-14.9-36.95-12a78.91,78.91,0,0,1,56.16,4.23Z"/><path class="cls-3" d="M295.25,714.78a39.34,39.34,0,0,0-11.8-6.58,41.8,41.8,0,0,0-26.48,0c1.74-.19,13.22-1.25,21.9,7.13a26.37,26.37,0,0,1,7.29,13.19c1.35-2.49,2.93-5.14,4.79-7.89C292.39,718.5,293.84,716.55,295.25,714.78Z"/><path class="cls-3" d="M278.5,762.64a29.87,29.87,0,0,0-36,5.72,27.77,27.77,0,0,1,37.75,9.7q-.28-3-.63-6.08Q279.13,767.21,278.5,762.64Z"/><path class="cls-3" d="M291.91,809.25a31.35,31.35,0,0,0-19.69,1.85c-13.33,6-17,19.55-17.45,21.4a38.27,38.27,0,0,1,46.68-9.5c-1.4-1.67-2.83-3.51-4.26-5.51A93.91,93.91,0,0,1,291.91,809.25Z"/><path class="cls-3" d="M328,844.53a27.4,27.4,0,0,0-14.2,11.06c-5.46,8.76-5.12,20.42.69,30.19A31.82,31.82,0,0,1,343,850.57q-2.61-.81-5.4-1.84A99.55,99.55,0,0,1,328,844.53Z"/><path class="cls-4" d="M619.1,705.49c-8.72,6.17-29.57,18.14-57.33,22.18a134,134,0,0,1-19.3,1.4,173.29,173.29,0,0,1-63.24-33.24c-82.41-68.7-66.61-191.67-64.74-204.67q16.72-85.95,33.43-171.87a163.88,163.88,0,0,1,61,53.92,123.33,123.33,0,0,1,61.54,0,164,164,0,0,1,61-53.92q17.64,88.57,35.3,177.14a392.49,392.49,0,0,1-2.39,100.26C657.62,640.15,651.24,682.73,619.1,705.49Z"/><path class="cls-3" d="M407.25,558.33a291.85,291.85,0,0,1-16.08,86.74c-9.66,27.7-20.92,46.31-26.22,56.64-14.25,27.8-17,80.38,39.45,189.7a27.21,27.21,0,0,0-19.51,28.48l245.91.39h-7.23l72.71-.4a27.21,27.21,0,0,0-19.52-28.48c56.44-109.32,53.7-161.9,39.45-189.7-17.65-34.45-26.05-51.42-35.8-90.67a194.93,194.93,0,0,1-5.95-41.57c-.31-7.43.15-10-.18-10.06-1.16-.24-6.84,31.17-15.86,59.23-9.67,30.05-17.7,55-37.6,75.39-8.35,8.54-32.15,29.93-78.35,35a122,122,0,0,1-32.57-7.92C427.83,688.56,409.68,575,407.25,558.33Z"/><path class="cls-5" d="M481.39,886.51l-.12-.18"/><path class="cls-2" d="M535.63,885.46v34.82H454.16v0A34.85,34.85,0,0,1,489,885.46Z"/><path class="cls-2" d="M630.8,920.23v0H549.34V885.46H596a31,31,0,0,1,4.93.37A34.79,34.79,0,0,1,630.8,920.23Z"/><path class="cls-2" d="M542.47,729.07l-6.84,172.85V885.46H489a34.56,34.56,0,0,0-7.73.87,205.42,205.42,0,0,1-30.44-125.09l-13.06,22.87c-2.39-6.54-6.11-19.84-2.19-35.25a55.38,55.38,0,0,1,4.77-12.36c-3,1.85-6,3.67-9,5.5a66.75,66.75,0,0,1-.48-21.16v-.05a109.33,109.33,0,0,1,6-23.8c-2.94,4.1-5.86,8.23-8.8,12.33a115.06,115.06,0,0,1,2.44-45.44q-4.69,8-9.42,16a113.11,113.11,0,0,1,2.32-61.22Q417.22,628,411,637.41c-1-7.79-2.24-18.28-3.07-30.72-4-59.63,4.72-107.8,5.69-107.72.42,0-.56,9.49-.38,32.42.17,20,1,27.38,1.74,32.11a154.59,154.59,0,0,0,5.88,25.09l11.5-6.25a29.18,29.18,0,0,0-2.62,7,31.48,31.48,0,0,0,1.93,19.29q3.53-4.17,7.07-8.33a54.84,54.84,0,0,0,7.2,43l7.57-10.85a50.71,50.71,0,0,0,8.3,30.31l12.23-3.28a44.26,44.26,0,0,0,6.56,30.11l10.73-8.35a29.79,29.79,0,0,0,2.09,18.19,28.93,28.93,0,0,0,6.86,9.25l8.94-7.76a57.79,57.79,0,0,0,33.23,28.07A58.16,58.16,0,0,0,575.54,701l8.94,7.76a29,29,0,0,0,8.95-27.44q5.36,4.18,10.73,8.35a44.35,44.35,0,0,0,6.56-30.11L623,662.84a51.48,51.48,0,0,0,7.17-17.05,50.92,50.92,0,0,0,1.13-13.26l7.57,10.85a55,55,0,0,0,7.2-43l7.07,8.33a30.23,30.23,0,0,0-.7-26.32l11.5,6.25A298.21,298.21,0,0,0,667.2,540c-.57-38.63-8.82-78.58-8.7-78.59h0c.59,2.05,1.14,4.13,1.66,6.22,0,.05,0,.12.05.16a440.6,440.6,0,0,1,14.52,113.1q0,12.65-.87,25.78c-.68,10.63-1.73,20.87-3.07,30.72q-6.19-9.37-12.38-18.77a113.11,113.11,0,0,1,2.32,61.22q-4.71-8-9.42-16a115.06,115.06,0,0,1,2.44,45.44c-2.94-4.1-5.86-8.23-8.8-12.33a109.33,109.33,0,0,1,6,23.8v.05a67.71,67.71,0,0,1-.45,21.16c-3-1.83-6-3.65-9-5.5a55.91,55.91,0,0,1,4.74,12.36c3.92,15.41.21,28.71-2.19,35.25L631,761.24a205.7,205.7,0,0,1-30.1,124.59,31,31,0,0,0-4.93-.37H549.34v16.46Z"/><path class="cls-6" d="M663.89,588.59l-11.5-6.25a30.23,30.23,0,0,1,.7,26.32,31.58,31.58,0,0,0-5.7-12.68c-3.07-4-6.53-6.07-11.33-9.33s-8.85-4.92-19.22-11.42c-26-16.37-48.29-52.28-55.13-79.39-1.21-4.72-3.61-15.83-12.29-20.32a19.47,19.47,0,0,0-17.29,0c-8.59,4.45-11.08,15.32-12.19,19.63-6.73,26-28.48,63.32-55.25,80.08-6.45,4-12.92,8.07-19.63,11.67-3.67,2-6.58,3.41-9.11,6.64-4,5.06-4.41,11.19-4.26,15.12a30.6,30.6,0,0,1,.69-26.32l-11.5,6.25a228.64,228.64,0,0,1-6.58-30.74c-3.76-26.35-2.1-47.9.2-66.71,4.29-35.06,15.06-95.73,33.43-171.88a163.78,163.78,0,0,1,61,53.93,123.33,123.33,0,0,1,61.54,0,164.08,164.08,0,0,1,61-53.93c23.15,80.93,33.28,144.87,35.3,177.15a546.46,546.46,0,0,1,.08,63.1C666,571.4,664.85,581.37,663.89,588.59Z"/><path class="cls-7" d="M556.75,546.07A16.85,16.85,0,0,1,544.09,541a17.29,17.29,0,0,1-4.36-10.53v-19.3h2.4v19.23a15.08,15.08,0,0,0,3.77,9.13c5.65,6.07,14.55,4,15.54,3.74a17.81,17.81,0,0,0,9-5.74l1.87,1.41a20.39,20.39,0,0,1-10.28,6.5A22.92,22.92,0,0,1,556.75,546.07Z"/><path class="cls-7" d="M524.89,546.07a23.11,23.11,0,0,1-5.33-.61,20.36,20.36,0,0,1-10.27-6.5l1.86-1.41a17.85,17.85,0,0,0,9.05,5.74c1,.25,9.9,2.33,15.55-3.74a15.11,15.11,0,0,0,3.77-9.2V511.19h2.39v19.23a17.26,17.26,0,0,1-4.35,10.6A16.87,16.87,0,0,1,524.89,546.07Z"/><path class="cls-8" d="M553.38,503.54l-10.13,10.12a3.44,3.44,0,0,1-4.86,0l-10.12-10.12a3.43,3.43,0,0,1,2.43-5.86H551A3.43,3.43,0,0,1,553.38,503.54Z"/><circle class="cls-9" cx="589.88" cy="465.04" r="25.93"/><circle class="cls-8" cx="589.88" cy="465.04" r="17.05"/><circle class="cls-9" cx="579.56" cy="454.94" r="4.06"/><circle class="cls-9" cx="488.77" cy="465.04" r="25.93"/><circle class="cls-8" cx="488.77" cy="465.04" r="17.05"/><circle class="cls-9" cx="478.46" cy="454.94" r="4.06"/><path class="cls-3" d="M441.3,418.33q7.72-32.64,15.44-65.27a61.52,61.52,0,0,1,31.92,27.33c-3.5,1.6-7.11,3.44-10.78,5.58A127.77,127.77,0,0,0,441.3,418.33Z"/><path class="cls-3" d="M637.24,418.33q-7.72-32.64-15.44-65.27a61.93,61.93,0,0,0-20.35,12.63,61.24,61.24,0,0,0-11.57,14.7c3.5,1.6,7.1,3.44,10.77,5.58A127.69,127.69,0,0,1,637.24,418.33Z"/><path class="cls-3" d="M508.89,373.21a50.43,50.43,0,0,0-9.38,21.22c-3.18,17.37,4,31,6.36,35.11A94.16,94.16,0,0,1,526.21,370c-2.72.28-5.64.68-8.73,1.24S511.53,372.51,508.89,373.21Z"/><path class="cls-3" d="M570.53,373.21a50.43,50.43,0,0,1,9.38,21.22c3.18,17.37-4,31-6.36,35.11A94.16,94.16,0,0,0,553.21,370c2.95.32,6.11.77,9.44,1.4C565.44,372,568.07,372.57,570.53,373.21Z"/><path class="cls-3" d="M549.63,369.71a253.32,253.32,0,0,1-10.56,69.85,196.25,196.25,0,0,1-9.51-69.84c2.62-.21,5.41-.35,8.33-.4,4.2-.05,8.13.1,11.74.39"/><path class="cls-10" d="M598.68,516.54a1,1,0,0,1-1-.75,1.06,1.06,0,0,1,.71-1.32l95.75-28.69a1.08,1.08,0,0,1,1.32.71,1.07,1.07,0,0,1-.71,1.32L599,516.5A1,1,0,0,1,598.68,516.54Z"/><path class="cls-10" d="M694.43,555.69a1,1,0,0,1-.3,0L598.38,527a1.06,1.06,0,0,1,.6-2l95.76,28.69a1.06,1.06,0,0,1-.31,2.07Z"/><path class="cls-10" d="M700.09,522.18H598.68a1.06,1.06,0,0,1,0-2.12H700.09a1.06,1.06,0,0,1,0,2.12Z"/><path class="cls-10" d="M485.14,516.54a1,1,0,0,1-.3,0l-95.75-28.69a1.06,1.06,0,0,1-.71-1.32,1.07,1.07,0,0,1,1.32-.71l95.75,28.69a1.06,1.06,0,0,1-.31,2.07Z"/><path class="cls-10" d="M389.39,555.69a1.06,1.06,0,0,1-.3-2.07l95.75-28.69a1.06,1.06,0,0,1,.61,2L389.7,555.65A1.1,1.1,0,0,1,389.39,555.69Z"/><path class="cls-10" d="M485.14,522.18H383.74a1.06,1.06,0,0,1,0-2.12h101.4a1.06,1.06,0,0,1,0,2.12Z"/><path class="cls-2" d="M710.38,690.28a40.22,40.22,0,0,1-10.73,23.23c-10.84,11.33-24.67,12.13-27.59,12.23a44.27,44.27,0,0,0,49.24-11,135.62,135.62,0,0,0-5.09-13C714.31,697.51,712.33,693.69,710.38,690.28Z"/><path class="cls-2" d="M370.25,691.9A40.19,40.19,0,0,0,381,715.13c10.84,11.34,24.67,12.13,27.59,12.23a44.27,44.27,0,0,1-49.24-11.05,93.82,93.82,0,0,1,10.92-24.41Z"/><path class="cls-2" d="M724.76,748.36a51.43,51.43,0,0,1-13.15,4.6,53.65,53.65,0,0,1-28.79-2.3,65.16,65.16,0,0,0,39.72,18.2c.48-3,.92-6.22,1.29-9.53q.63-5.72.93-11"/><path class="cls-2" d="M356.26,748.36a51.57,51.57,0,0,0,13.15,4.6,53.62,53.62,0,0,0,28.79-2.3,65.1,65.1,0,0,1-39.71,18.2q-.74-4.56-1.29-9.53c-.43-3.81-.73-7.47-.94-11"/><path class="cls-11" d="M394.25,698.42c40-5.84,82.21-13.28,126.37-22.75,39.54-8.48,77-17.8,112.23-27.59A549.6,549.6,0,0,0,674.74,824.2c-38.36,13.38-79.69,26.35-123.85,38.32C512.17,873,475,881.73,439.59,889a637.34,637.34,0,0,0-20.7-118.19A634.37,634.37,0,0,0,394.25,698.42Z"/><circle class="cls-12" cx="623.27" cy="675.89" r="5.78"/><path class="cls-12" d="M425.15,719.73a5.78,5.78,0,1,1-5.78-5.78A5.78,5.78,0,0,1,425.15,719.73Z"/><path class="cls-13" d="M682.69,604.05a74.79,74.79,0,0,1-1.27,8.46,81.79,81.79,0,0,1-17.52,35.7A101.89,101.89,0,0,1,649,662.87c-3.1,2.51-6.09,4.68-8.82,6.5-1.46,1-2.85,1.83-4.13,2.6v0a88,88,0,0,1-9.46,5.06,3.42,3.42,0,1,1-2.76-6.25,98.5,98.5,0,0,0,15.66-9.42c1.14-.82,2.33-1.71,3.52-2.64,0,0,0,0,0,0a101.33,101.33,0,0,0,10.62-9.51,88.82,88.82,0,0,0,9.47-11.51,76.78,76.78,0,0,0,4.56-7.41,73.7,73.7,0,0,0,5.1-11.93,69.37,69.37,0,0,0,3.1-15,72.45,72.45,0,0,0-1.14-21.25c0-1.19,0-2.38,0-3.56,0-2.21,0-4.42,0-6.61,0,0,0-.05,0-.07,0-4-.13-8-.29-12A84.11,84.11,0,0,1,682.69,604.05Z"/><path class="cls-13" d="M421.55,721.54a3.35,3.35,0,0,1-2.51,1.12,3.41,3.41,0,0,1-2.3-.89c-11.36-10.33-25.79-27.84-30.15-52.52-.48-2.75-.82-5.54-1-8.29-1.67-21.35,4.67-42.92,17.49-61.82-.73,4.47-1.6,9.1-2.65,13.86-.66,3.11-1.71,7.71-3.26,13.48a.23.23,0,0,0,0,.11,83.41,83.41,0,0,0-2.85,9.88.15.15,0,0,1,0,.09,80.48,80.48,0,0,0-.91,31.51c4,22.78,17.45,39,28,48.63A3.44,3.44,0,0,1,421.55,721.54Z"/><path class="cls-7" d="M503.89,725.22s0,.09,0,.13c-.06,1,0,1.68-1.07,2-.55.15-.63.17-1.09-.24l-1.06-2.55c-2.6-7.11-5-14.13-7.8-21.16a35.07,35.07,0,0,0-2.34-4.77,1.16,1.16,0,0,1-.09-.19c-.23-1.17,2.12-1.81,2.52-.84,2.25,5.17,4.83,12.4,6.91,17.73l1.65,4.28a73.51,73.51,0,0,0-.37-9.61,1.45,1.45,0,0,1,1.09-1.44,1.15,1.15,0,0,1,1.25.17l6.7,10.23c-1.22-7.13-2.8-19.22-3.62-25.6.23-1.13,2-1.61,2.41-.31a45.67,45.67,0,0,1,.57,5.37c1,8.68,2.65,17.16,4,25.73-.34.58-.11.91-.9,1.15l-.28.06c-1.05.21-1.18-.65-1.74-1.54l-7.26-11.37C504,718.08,503.62,721.37,503.89,725.22Z"/><path class="cls-7" d="M526.82,720.62s0,.09,0,.13c0,1,0,1.68-1.06,2-.56.16-.64.17-1.1-.24l-1-2.55c-2.6-7.11-5-14.13-7.81-21.15a32.49,32.49,0,0,0-2.34-4.78,1.44,1.44,0,0,1-.08-.19c-.23-1.17,2.11-1.8,2.51-.84,2.26,5.17,4.84,12.4,6.91,17.73l1.66,4.28a73.54,73.54,0,0,0-.38-9.61,1.44,1.44,0,0,1,1.1-1.43,1.11,1.11,0,0,1,1.25.17l6.7,10.22c-1.22-7.13-2.81-19.22-3.63-25.6.24-1.13,2-1.61,2.41-.31a47.91,47.91,0,0,1,.58,5.37c1,8.68,2.64,17.16,4,25.74-.35.57-.12.9-.9,1.14l-.29.06c-1,.21-1.17-.65-1.73-1.54l-7.27-11.37C526.89,713.48,526.55,716.77,526.82,720.62Z"/><path class="cls-7" d="M549.74,716s0,.09,0,.13c-.06,1,0,1.68-1.06,2-.56.16-.64.17-1.1-.24l-1.06-2.55c-2.6-7.11-5-14.13-7.8-21.15a34,34,0,0,0-2.34-4.77,1.38,1.38,0,0,1-.09-.2c-.23-1.17,2.12-1.8,2.52-.84,2.25,5.17,4.83,12.41,6.91,17.73l1.65,4.28a73.65,73.65,0,0,0-.37-9.61,1.44,1.44,0,0,1,1.09-1.43,1.11,1.11,0,0,1,1.25.17l6.7,10.22c-1.22-7.13-2.8-19.22-3.62-25.6.23-1.13,2-1.61,2.41-.31a45.67,45.67,0,0,1,.57,5.37c1,8.68,2.65,17.16,4,25.74-.34.57-.11.9-.9,1.14l-.28.06c-1.05.21-1.18-.65-1.74-1.54l-7.26-11.37C549.82,708.88,549.48,712.18,549.74,716Z"/><path class="cls-7" d="M468.31,757.53q29.44-5,58.56-11.73c17.88-4.14,35.68-8.66,53.54-12.89q15.9-3.76,31.83-7.41c.63-.14-.72-1.84-1.4-1.69q-30.65,7-61.17,14.46c-15,3.66-29.93,7.27-45,10.42q-18.81,3.91-37.75,7.15c-.6.1.71,1.81,1.4,1.69Z"/><path class="cls-7" d="M473.42,778.44q27.84-8.27,56.33-14c9.1-1.84,18.24-3.43,27.36-5.18q15.28-3,30.36-6.88,14.74-3.86,29.26-8.57c.49-.16-1.13-1.49-1.8-1.27a488.68,488.68,0,0,1-56.73,14.86c-17.49,3.46-35,6.48-52.38,10.63q-17.22,4.13-34.2,9.19c-.48.14,1.13,1.46,1.8,1.26Z"/><path class="cls-7" d="M477.47,797.31q29.44-5,58.56-11.73c17.88-4.15,35.68-8.67,53.54-12.9q15.9-3.75,31.83-7.4c.2,0-.67-2-1.29-1.86q-30.63,7-61.17,14.46c-15,3.65-29.93,7.27-45,10.41q-18.79,3.93-37.74,7.15c-.17,0,.65,2,1.28,1.87Z"/><path class="cls-7" d="M481.92,818.37q27.81-8.26,56.27-14c9.11-1.83,18.27-3.42,27.39-5.18q15.27-3,30.31-6.86t29.63-8.68a.91.91,0,0,0,.55-1.23c-.3-.54-1-.47-1.49-.32a488.28,488.28,0,0,1-56.41,14.78c-17.43,3.45-34.91,6.44-52.2,10.57q-17.33,4.15-34.41,9.24c-1.34.4-1,2.14.36,1.73Z"/><path class="cls-7" d="M485.82,837q29.44-5,58.57-11.73c17.89-4.14,35.7-8.67,53.57-12.9q16-3.8,32.06-7.46c1.13-.26,1.43-1.73,0-1.4q-30.56,7-61,14.42c-14.93,3.65-29.86,7.25-44.91,10.39q-18.81,3.93-37.74,7.15c-.44.08-1.2.39-1.28.91s.3.7.76.62Z"/><text class="cls-14" transform="translate(446.41 766.65) rotate(-13.7)">1<tspan x="0" y="21.86">2</tspan><tspan x="0" y="43.71">3</tspan><tspan x="0" y="65.57">4</tspan><tspan x="0" y="87.42">5</tspan></text><path class="cls-15" d="M615,168.72a72.12,72.12,0,0,1-28.09,57.51l-.1.07c-.59.4-1.16.83-1.71,1.28a28,28,0,0,0-10.45,22l.07,15.66-67.77.32-.09-19.4a28,28,0,0,0-9.28-20.7v0c-.55-.5-1.13-1-1.73-1.43l-.09-.07A72.23,72.23,0,1,1,615,168.72Z"/><path class="cls-16" d="M519.74,246.06l.1,19.4-12.9.06-.09-19.4a28,28,0,0,0-9.28-20.7v0c-.55-.5-1.13-1-1.73-1.43l-.09-.07A72.23,72.23,0,0,1,542.4,96.83q3.26,0,6.45.26a72.23,72.23,0,0,0-40.22,126.75l.09.07c.6.46,1.18.93,1.73,1.43v0A28,28,0,0,1,519.74,246.06Z"/><path class="cls-17" d="M538.58,271.12c1.77-63.72-3.6-80.45-9.75-81.6-5.6-1-14.64,10.26-12.35,16,4.27,10.76,50.12,7.9,53.06-3.42,1.63-6.25-9.35-16.9-15.27-15.07-6.33,1.95-10.33,19.26-1.65,83.67"/><path class="cls-18" d="M507.06,265.36h67.82a0,0,0,0,1,0,0V309a5.26,5.26,0,0,1-5.26,5.26H512a5,5,0,0,1-5-5V265.36a0,0,0,0,1,0,0Z" transform="translate(-1.37 2.57) rotate(-0.27)"/><rect class="cls-19" x="503.93" y="271.11" width="73.94" height="6.84" rx="1.39" transform="translate(-1.3 2.57) rotate(-0.27)"/><rect class="cls-19" x="503.98" y="282.1" width="73.94" height="6.84" rx="1.39" transform="translate(-1.35 2.57) rotate(-0.27)"/><rect class="cls-19" x="504.03" y="293.09" width="73.94" height="6.84" rx="1.39" transform="translate(-1.4 2.57) rotate(-0.27)"/><path class="cls-20" d="M519.06,271.21l0,6.83-13.77.07a1.38,1.38,0,0,1-1.39-1.36l0-4.1a1.4,1.4,0,0,1,1.38-1.38Z"/><path class="cls-20" d="M519.11,282.2l0,6.84-13.77.06a1.36,1.36,0,0,1-1.38-1.36l0-4.1a1.36,1.36,0,0,1,1.37-1.37Z"/><path class="cls-20" d="M519.16,293.19l0,6.84-13.77.06a1.37,1.37,0,0,1-1.38-1.36l0-4.1a1.36,1.36,0,0,1,1.37-1.37Z"/><rect class="cls-15" x="538.85" y="41.31" width="8.5" height="46.77"/><rect class="cls-15" x="613.09" y="70.89" width="8.5" height="46.77" transform="translate(247.48 -408.91) rotate(45)"/><rect class="cls-15" x="459.27" y="73.45" width="8.5" height="46.77" transform="translate(859.74 -162.45) rotate(135)"/><rect class="cls-15" x="642.07" y="140.01" width="8.5" height="46.77" transform="translate(809.71 -482.92) rotate(90)"/><rect class="cls-15" x="435.88" y="140.01" width="8.5" height="46.77" transform="translate(603.52 -276.73) rotate(90)"/><path class="cls-21" d="M661.4,818.66a16.26,16.26,0,0,0-3.17,1.72,4,4,0,0,1-2.89.75c-.49-.11-1.31-.49-1.41-1.08s.58-1.21,1.94-2.5c.29-.28.39-.35.55-.5.71-.67,2.53-2.37,2.35-4.37a3.4,3.4,0,0,0-2-2.84,3.29,3.29,0,0,0-2.26,0,4.7,4.7,0,0,0-1.82,1.19,9.72,9.72,0,0,0-2.47,3.4,7.67,7.67,0,0,0-.77,3.51,6.9,6.9,0,0,0,.83,3,5.83,5.83,0,0,0,2,2.19,5.94,5.94,0,0,0,2.29.82,7.69,7.69,0,0,0,2.83-.1,8.42,8.42,0,0,0,4.2-2.49c1.13-1.1,1.12-1.59,1.07-1.82a1.3,1.3,0,0,0-.92-.94A1,1,0,0,0,661.4,818.66Zm-9-1.07c-.5-.3,0-2.48,1.25-3.76.39-.4,1.2-1.09,1.58-.86s.09,1.52.06,1.61a4,4,0,0,1-.84,1.49C654.06,816.52,652.83,817.86,652.39,817.59Z"/><rect class="cls-21" x="649.63" y="803.32" width="1.99" height="5.78" rx="0.98" transform="translate(-306.14 408.85) rotate(-28.54)"/><rect class="cls-21" x="654" y="802.03" width="1.99" height="5.78" rx="0.98" transform="translate(20.7 -16.41) rotate(1.46)"/><rect class="cls-21" x="646.38" y="806.17" width="1.99" height="5.78" rx="0.98" transform="translate(1675.37 679.07) rotate(121.46)"/><rect class="cls-21" x="645.1" y="810.25" width="1.99" height="5.78" rx="0.98" transform="translate(1497.24 218.01) rotate(93.51)"/><rect class="cls-21" x="658.12" y="803.17" width="1.99" height="5.78" rx="0.98" transform="translate(480.75 -219.78) rotate(29.41)"/><path class="cls-3" d="M335.66,895.36a3,3,0,0,1-.64-1.84h0a5.38,5.38,0,0,1,1.13-3h0a8,8,0,0,1,2.41-2.22h0a3.7,3.7,0,0,1,1.76-.56h0a1.83,1.83,0,0,1,.33,0h0a3.24,3.24,0,0,1,2,1h0l.23.27h0c.05-.59.11-1.31.18-2.07h0c.15-1.79.29-3.76.28-4.36h0v-.11h0a4.15,4.15,0,0,1-.16-1h0a1.11,1.11,0,0,1,.13-.6h0a.73.73,0,0,1,.63-.36h0a1.48,1.48,0,0,1,1.49,1.47h0a1.49,1.49,0,0,1-.08.5h0s0,0,0,.06h0a1.81,1.81,0,0,0,0,.22h0q0,.29-.09.75h0c-.07.62-.15,1.44-.23,2.34h0c-.14,1.65-.26,3.57-.3,5h0a1.49,1.49,0,0,1,.48.23h0a.87.87,0,0,1,.36.5h0a1.52,1.52,0,0,1,.06.42h0a.94.94,0,0,1-.18.59h0a1.12,1.12,0,0,1-.43.32h0a3.93,3.93,0,0,1-.54.2h0a5.72,5.72,0,0,1,.1,1h0a2.56,2.56,0,0,1,0,.55h0a1,1,0,0,1-.28.55h0a.73.73,0,0,1-.48.18h-.09a1.67,1.67,0,0,1-.75-.26h0a1.17,1.17,0,0,1-.4-.53h0c0-.09-.05-.18-.07-.26h0c-.31.2-.74.46-1.22.72h0a8.32,8.32,0,0,1-3.56,1.16h0a2.39,2.39,0,0,1-1.94-.85Zm2.51-4.29a4.52,4.52,0,0,0-1.18,2.5h0a.67.67,0,0,0,.16.47h0a.72.72,0,0,0,.59.21h0a5.07,5.07,0,0,0,2.05-.75h0c.73-.4,1.51-.9,2.25-1.37h0c0-.15-.09-.36-.15-.58h0a4.33,4.33,0,0,0-.69-1.47h0a1.11,1.11,0,0,0-.65-.45h-.2a3.66,3.66,0,0,0-2.18,1.45Zm9.4,3a8.48,8.48,0,0,1-1.12-2.64h0a21.61,21.61,0,0,1-.62-4.25h0a.86.86,0,0,1,0-.16h0a1.17,1.17,0,0,1,.21-.74h0a.77.77,0,0,1,.64-.31h.16a1.13,1.13,0,0,1,.85.55h0a1.38,1.38,0,0,1,.17.64h0a4.34,4.34,0,0,0,0,.51h0a17.89,17.89,0,0,0,.3,3.33h0a4.38,4.38,0,0,0,.72,1.84h0c.18.2.3.25.43.25h0a.64.64,0,0,0,.29-.08h0a2.1,2.1,0,0,0,.88-1h0a6.06,6.06,0,0,0,.48-1.66h0a14.66,14.66,0,0,0,.17-2.58h0v-.07h0a1.33,1.33,0,0,1,.15-.69h0a1,1,0,0,1,.87-.45h.07a.94.94,0,0,1,.61.24h0a1.24,1.24,0,0,1,.29.44h0a1.76,1.76,0,0,1,.13.53h0v.09c0,.24-.08,1.28-.27,2.48h0a10.66,10.66,0,0,1-1.09,3.61h0a2.56,2.56,0,0,1-1.77,1.37h0l-.35,0h0a2.65,2.65,0,0,1-2.18-1.29Zm8.37,1.86h-.18a1.17,1.17,0,0,1-.8-.45h0a1,1,0,0,1-.18-.43h0l-.11,0h0a1,1,0,0,1-.61-.45h0v0a.67.67,0,0,1,0-.12h0v-.06h0s0-.09,0-.14h0c0-.11,0-.26,0-.44h0c0-.36,0-.85,0-1.42h0a34.94,34.94,0,0,1,.13-3.93h0a1.17,1.17,0,0,1-.31-.68h0a.22.22,0,0,1,0-.08h0A1,1,0,0,1,354,887h0a1.54,1.54,0,0,1,.34-.28h0c0-.06,0-.13,0-.21h0c0-.24.13-.59.2-1h0a15.56,15.56,0,0,0,.27-2.65h0a.62.62,0,0,1,0-.13h0a1.6,1.6,0,0,0-.08-.37h0a2.9,2.9,0,0,1-.12-.65h0a1,1,0,0,1,.2-.62h0a1,1,0,0,1,.68-.34h.08a.87.87,0,0,1,.57.22h0a1.67,1.67,0,0,1,.37.46h0a3,3,0,0,1,.34,1.37h0a.66.66,0,0,0,0,.14h0a8,8,0,0,1-.19,1.67h0c-.09.46-.21,1-.33,1.69h0a8.3,8.3,0,0,1,2.33.32h0a3.86,3.86,0,0,1,2.48,1.94h0a1.6,1.6,0,0,1,.16.71h0a3.4,3.4,0,0,1-.56,1.7h0a11.58,11.58,0,0,1-1.23,1.65h0a33.13,33.13,0,0,1-2.5,2.45h0l-.27.25h0a1.77,1.77,0,0,0-.19.23h0a.86.86,0,0,1-.29.31h0a.71.71,0,0,1-.37.1h0Zm-.11-4.88a20.35,20.35,0,0,0,.15,2.36h0c.19-.16.43-.35.68-.57h0a13.59,13.59,0,0,0,2.1-2.19h0a2.49,2.49,0,0,0,.55-1.27h0a.53.53,0,0,0-.06-.26h0a1.72,1.72,0,0,0-1-.63h0a6.15,6.15,0,0,0-1.79-.24h-.39c0,.14-.05.32-.08.53h0a17.64,17.64,0,0,0-.17,1.83h0V891Zm7.34,5.34a1.29,1.29,0,0,1-.73-.25h0a.78.78,0,0,1-.31-.49h0a2.75,2.75,0,0,1-.11-.57h0a14.88,14.88,0,0,1-.08-1.65h0c0-2.54.21-6.47.36-8.75h0c.07-1.16.11-2.15.16-2.92h0a8.57,8.57,0,0,1,.2-1.68h0a.77.77,0,0,1,.2-.34h0a1.08,1.08,0,0,1,.72-.32h0a1.3,1.3,0,0,1,.91.45h0a1.07,1.07,0,0,1,.24.4h0a1.63,1.63,0,0,1,.06.5h0a19.65,19.65,0,0,1-.18,2h0c-.12,1-.29,2.45-.48,4.55h0c-.14,1.63-.21,3.3-.19,4.75h0a24.22,24.22,0,0,0,.13,2.46h0c0,.09,0,.2,0,.33h0a2.72,2.72,0,0,1-.05.62h0a1.15,1.15,0,0,1-.31.65h0a.76.76,0,0,1-.54.23h0Zm3.24-1.42.19-.41-.19.41a3,3,0,0,1-1.23-1.27h0a4.52,4.52,0,0,1-.55-2.11h0a4.42,4.42,0,0,1,.32-1.71h0a10.08,10.08,0,0,1,1.71-3h0a3.08,3.08,0,0,1,1.92-1.09h.17a3.1,3.1,0,0,1,1.86.69h0A4,4,0,0,1,372,889h0a5.08,5.08,0,0,1,.08.85h0a5.21,5.21,0,0,1-1.66,3.82h0a5,5,0,0,1-3.12,1.45h0a2.15,2.15,0,0,1-.91-.18Zm2.53-7.08-.15,0h0a2.37,2.37,0,0,0-.56.37h0a5.43,5.43,0,0,0-1.53,2.65h0a2,2,0,0,0-.08.59h0a2.52,2.52,0,0,0,.23,1.06h0a.92.92,0,0,0,.52.54h0a.4.4,0,0,0,.17,0h0a2.29,2.29,0,0,0,1.22-.58h0a3.61,3.61,0,0,0,.92-1.08h0a4.3,4.3,0,0,0,.49-1.85h0a2.47,2.47,0,0,0-.27-1.09h0a1.41,1.41,0,0,0-.36-.54h0a.8.8,0,0,0-.37-.17h0l-.21,0h0Zm-.12-.11,0-.34,0,.34Zm-41,3.31a7.4,7.4,0,0,1,1.32-1.56,8.57,8.57,0,0,1,3.61-1.73l.64.05a2.68,2.68,0,0,1,1.42.66,1.59,1.59,0,0,1,.34,1.63,2.77,2.77,0,0,1-1.34,1.79,6.42,6.42,0,0,1-2.41.88c-.87.13-1.36.29-1.44.48s0,.41.33.68a5.15,5.15,0,0,0,2.22.73,9.62,9.62,0,0,0,2.92.18,10.94,10.94,0,0,0,1.91-.39c.49-.16,1,.36,1.3.32s.48.13.6.5c-.56.62-1.3.43-1.91.68a10.57,10.57,0,0,1-2.24.6,13,13,0,0,1-3.17.07l-.74-.09a9.1,9.1,0,0,1-2.64-.89,3.08,3.08,0,0,1-1-.95,3.12,3.12,0,0,1-.38-1.47A5.72,5.72,0,0,1,327.81,891.07Zm2,.65a7,7,0,0,0,2.37-.76c.42-.28.62-.57.6-.85s-.34-.31-.94-.09a3.12,3.12,0,0,0-1.28.75A8.75,8.75,0,0,0,329.82,891.72Z"/><path class="cls-3" d="M368.4,902.54a9.13,9.13,0,0,1-4.58-2.18h0a.76.76,0,0,1-.25-.53h0a.49.49,0,0,1,0-.12h0a1,1,0,0,1,.3-.58h0a1.08,1.08,0,0,1,.59-.3h.12a.83.83,0,0,1,.59.24h0a6,6,0,0,0,1.26.82h0a10.91,10.91,0,0,0,1.47.58h0a10.57,10.57,0,0,0,2.3.41h0a6.37,6.37,0,0,0,.76,0h0a9.08,9.08,0,0,0,1.55-.17h0a9.17,9.17,0,0,0,2-.62h0a4.46,4.46,0,0,0,2-2.28h0a11.64,11.64,0,0,0,.57-3.77h0a6.54,6.54,0,0,1-.4.52h0a5,5,0,0,1-.84.75h0a3.23,3.23,0,0,1-1.29.53h0l-.23,0h0a1.46,1.46,0,0,1-.61-.13h0a2.11,2.11,0,0,1-.63-.45h0a3.07,3.07,0,0,1-.87-2h0a1.77,1.77,0,0,1,0-.23h0a5.33,5.33,0,0,1,.41-2.12h0a13.16,13.16,0,0,1,1.1-2.15h0a8.56,8.56,0,0,1,.58-.8h0a9.61,9.61,0,0,1,1-1.12h0a6,6,0,0,1,1.3-.91h0a2,2,0,0,1,.92-.25h0a1.78,1.78,0,0,1,.51.06h0a.73.73,0,0,1,.28.13h0a.31.31,0,0,1,.13.25h0v.06h0a.9.9,0,0,1-.23.44h.07l.31,0h0a.89.89,0,0,1,.89.86h0v.08h0c-.07,1.26-.13,2.52-.19,3.79h0c-.07,1.27-.2,2.53-.33,3.78h0a14.82,14.82,0,0,1-.64,3.18h0a6.65,6.65,0,0,1-.64,1.35h0a5.77,5.77,0,0,1-1.76,1.68h0a8.85,8.85,0,0,1-2.31,1h0a10.9,10.9,0,0,1-2.62.37h0a12.83,12.83,0,0,1-2.59-.22Zm8.78-15a4.35,4.35,0,0,0-.41.44h0l-.43.53h0a5.93,5.93,0,0,0-.7,1.07h0c-.19.36-.37.74-.55,1.12h0a5.67,5.67,0,0,0-.69,2.36h0v0h0a2.42,2.42,0,0,0,.09.66h0c0,.14.09.18.13.2h0l0,0h0l.11-.1h0a3.51,3.51,0,0,0,.35-.44h0a12.66,12.66,0,0,0,1-1.93h0a19.34,19.34,0,0,0,.72-2.06h0c.19-.69.38-1.37.58-2.06h0l-.24.21Z"/><path class="cls-3" d="M381.49,895.63a4.87,4.87,0,0,1-1.53-1.39h0a.73.73,0,0,1-.13-.4h0a.72.72,0,0,1,.05-.28h0a1.21,1.21,0,0,1,.4-.55h0a1.24,1.24,0,0,1,.6-.26H381a.66.66,0,0,1,.54.28h0a3.4,3.4,0,0,0,.92.84h0a.65.65,0,0,0,.39.12h0a.6.6,0,0,0,.43-.23h0l0,0h0a.69.69,0,0,1,0-.1h0a1.21,1.21,0,0,0,.06-.45h0v0h0a1.91,1.91,0,0,0-.17-.69h0a2.43,2.43,0,0,0-.67-.83h0c-.19-.15-.39-.29-.59-.43h0a2.43,2.43,0,0,1-.59-.52h0a2.16,2.16,0,0,1-.52-1.37h0a3.67,3.67,0,0,1,0-.46h0a2.9,2.9,0,0,1,1.13-1.91h0a5,5,0,0,1,2-1h0l.16,0h0a.6.6,0,0,1,.45.19h0a.73.73,0,0,1,.19.46h0s0,.09,0,.14h0a1.18,1.18,0,0,1-.74.9h0a3.07,3.07,0,0,0-.55.34h0a2.48,2.48,0,0,0-.52.5h0a1,1,0,0,0-.22.55h0v0h0a.58.58,0,0,0,.26.44h0a6.36,6.36,0,0,0,.66.5h0a3.28,3.28,0,0,1,.65.59h0a7.5,7.5,0,0,1,.67.94h0a2.67,2.67,0,0,1,.38,1.11h0a2.43,2.43,0,0,1,0,.38h0a3.41,3.41,0,0,1-.33,1.53h0a2.41,2.41,0,0,1-1.46,1.26h0a3,3,0,0,1-.82.15h0a2.32,2.32,0,0,1-1.25-.33Zm1.89-1.85v0Zm-.06,0,0,0,0,0Z"/><path class="cls-3" d="M379.41,882.59c.15-.22.3-.43.62-.39a.46.46,0,0,1,.43.5,1,1,0,0,1-.17.44l-.81,1.26c-.14.22-.3.43-.61.4a.49.49,0,0,1-.44-.51,1,1,0,0,1,.18-.44Z"/><path class="cls-3" d="M376.52,882.41a.65.65,0,0,1,.25-.69.47.47,0,0,1,.65.14,1,1,0,0,1,.12.46l.12,1.5a.63.63,0,0,1-.25.68.47.47,0,0,1-.65-.14,1,1,0,0,1-.13-.46Z"/><path class="cls-3" d="M374.12,883.25a.63.63,0,0,1,0-.73.47.47,0,0,1,.65-.13,1,1,0,0,1,.29.37l.69,1.34a.63.63,0,0,1,0,.72.47.47,0,0,1-.66.13,1,1,0,0,1-.29-.37Z"/><path class="cls-3" d="M374.09,885.18c.22.13.43.28.42.59a.49.49,0,0,1-.49.47,1,1,0,0,1-.44-.16l-1.3-.75c-.22-.14-.43-.28-.41-.6a.47.47,0,0,1,.48-.46,1,1,0,0,1,.44.16Z"/><path class="cls-3" d="M381.41,884.2c.22-.14.45-.27.72-.11a.48.48,0,0,1,.2.64,1.07,1.07,0,0,1-.34.33l-1.25.83a.64.64,0,0,1-.71.11.47.47,0,0,1-.2-.64,1,1,0,0,1,.34-.33Z"/></svg>